<?xml version="1.0" encoding="UTF-8" standalone="no"?>
<svg
   xmlns:dc="http://purl.org/dc/elements/1.1/"
   xmlns:cc="http://creativecommons.org/ns#"
   xmlns:rdf="http://www.w3.org/1999/02/22-rdf-syntax-ns#"
   xmlns:svg="http://www.w3.org/2000/svg"
   xmlns="http://www.w3.org/2000/svg"
   xmlns:sodipodi="http://sodipodi.sourceforge.net/DTD/sodipodi-0.dtd"
   xmlns:inkscape="http://www.inkscape.org/namespaces/inkscape"
   height="1024"
   width="1024"
   id="svg3075"
   version="1.1"
   inkscape:version="0.91 r13725"
   sodipodi:docname="github.svg">
  <metadata
     id="metadata3083">
    <rdf:RDF>
      <cc:Work
         rdf:about="">
        <dc:format>image/svg+xml</dc:format>
        <dc:type
           rdf:resource="http://purl.org/dc/dcmitype/StillImage" />
        <dc:title></dc:title>
      </cc:Work>
    </rdf:RDF>
  </metadata>
  <defs
     id="defs3081" />
  <sodipodi:namedview
     pagecolor="#ffffff"
     bordercolor="#666666"
     borderopacity="1"
     objecttolerance="10"
     gridtolerance="10"
     guidetolerance="10"
     inkscape:pageopacity="0"
     inkscape:pageshadow="2"
     inkscape:window-width="1350"
     inkscape:window-height="726"
     id="namedview3079"
     showgrid="false"
     inkscape:zoom="0.4025813"
     inkscape:cx="-622.49045"
     inkscape:cy="324.88012"
     inkscape:window-x="0"
     inkscape:window-y="16"
     inkscape:window-maximized="0"
     inkscape:current-layer="svg3075"
     fit-margin-top="0"
     fit-margin-left="0"
     fit-margin-right="0"
     fit-margin-bottom="0" />
  <path
     d="m 512,11.248291 c -282.75,0 -512,229.249989 -512,511.999989 0,226.25 146.688,418.125 350.156,485.81202 25.594,4.688 34.938,-11.125 34.938,-24.62502 0,-12.188 -0.469,-52.562 -0.719,-95.312 -142.375,30.937 -172.469,-60.375 -172.469,-60.375 -23.312,-59.125 -56.844,-74.875 -56.844,-74.875 -46.531,-31.75 3.53,-31.125 3.53,-31.125 51.406,3.562 78.47,52.75 78.47,52.75 45.688,78.25 119.875,55.625 149,42.5 4.654,-33 17.904,-55.625 32.5,-68.375 -113.656,-12.937 -233.218,-56.875 -233.218,-253.063 0,-55.938 19.969,-101.562 52.656,-137.406 -5.219,-13 -22.844,-65.094 5.062,-135.562 0,0 42.938,-13.75 140.812,52.5 40.812,-11.406 84.594,-17.031 128.125,-17.219 43.5,0.188 87.312,5.875 128.188,17.281 97.688,-66.312 140.688,-52.5 140.688,-52.5 28,70.531 10.375,122.562 5.125,135.5 32.812,35.844 52.625,81.469 52.625,137.406 0,196.688 -119.75,240 -233.812,252.688 18.438,15.875 34.75,47 34.75,94.75 0,68.438 -0.688,123.625 -0.688,140.5 0,13.62502 9.312,29.56202 35.25,24.56202 C 877.438,941.24828 1024,749.37328 1024,523.24828 1024,240.49828 794.75,11.248291 512,11.248291 Z"
     id="path3077"
     style="fill:#333333;fill-opacity:1"
     inkscape:connector-curvature="0" />
</svg>
