<?xml version="1.0" encoding="UTF-8" standalone="no"?>
<!-- Generator: Adobe Illustrator 16.0.0, SVG Export Plug-In . SVG Version: 6.00 Build 0)  -->

<svg
   xmlns:dc="http://purl.org/dc/elements/1.1/"
   xmlns:cc="http://creativecommons.org/ns#"
   xmlns:rdf="http://www.w3.org/1999/02/22-rdf-syntax-ns#"
   xmlns:svg="http://www.w3.org/2000/svg"
   xmlns="http://www.w3.org/2000/svg"
   xmlns:sodipodi="http://sodipodi.sourceforge.net/DTD/sodipodi-0.dtd"
   xmlns:inkscape="http://www.inkscape.org/namespaces/inkscape"
   version="1.1"
   id="Capa_1"
   x="0px"
   y="0px"
   width="510"
   height="510"
   viewBox="0 0 510 510"
   xml:space="preserve"
   inkscape:version="0.91 r13725"
   sodipodi:docname="linkedin.svg"><metadata
     id="metadata3125"><rdf:RDF><cc:Work
         rdf:about=""><dc:format>image/svg+xml</dc:format><dc:type
           rdf:resource="http://purl.org/dc/dcmitype/StillImage" /><dc:title></dc:title></cc:Work></rdf:RDF></metadata><defs
     id="defs3123" /><sodipodi:namedview
     pagecolor="#ffffff"
     bordercolor="#666666"
     borderopacity="1"
     objecttolerance="10"
     gridtolerance="10"
     guidetolerance="10"
     inkscape:pageopacity="0"
     inkscape:pageshadow="2"
     inkscape:window-width="1350"
     inkscape:window-height="726"
     id="namedview3121"
     showgrid="false"
     inkscape:zoom="0.4627451"
     inkscape:cx="-216.10171"
     inkscape:cy="226.90678"
     inkscape:window-x="0"
     inkscape:window-y="16"
     inkscape:window-maximized="0"
     inkscape:current-layer="g3086"
     fit-margin-top="0"
     fit-margin-left="0"
     fit-margin-right="0"
     fit-margin-bottom="0" /><g
     id="g3086"
     style="fill:#333333;fill-opacity:1"><g
       id="post-linkedin"
       style="fill:#007bb6;fill-opacity:1"><path
         d="M 459,0 H 51 C 22.95,0 0,22.95 0,51 v 408 c 0,28.05 22.95,51 51,51 h 408 c 28.05,0 51,-22.95 51,-51 V 51 C 510,22.95 487.05,0 459,0 z M 153,433.5 H 76.5 V 204 H 153 V 433.5 z M 114.75,160.65 c -25.5,0 -45.9,-20.4 -45.9,-45.9 0,-25.5 20.4,-45.9 45.9,-45.9 25.5,0 45.9,20.4 45.9,45.9 0,25.5 -20.4,45.9 -45.9,45.9 z M 433.5,433.5 H 357 V 298.35 c 0,-20.399 -17.85,-38.25 -38.25,-38.25 -20.4,0 -38.25,17.851 -38.25,38.25 V 433.5 H 204 V 204 h 76.5 v 30.6 c 12.75,-20.4 40.8,-35.7 63.75,-35.7 48.45,0 89.25,40.8 89.25,89.25 V 433.5 z"
         id="path3089"
         style="fill:#007bb6;fill-opacity:1"
         inkscape:connector-curvature="0" /></g></g><g
     id="g3091"
     transform="translate(0,28.09322)" /><g
     id="g3093"
     transform="translate(0,28.09322)" /><g
     id="g3095"
     transform="translate(0,28.09322)" /><g
     id="g3097"
     transform="translate(0,28.09322)" /><g
     id="g3099"
     transform="translate(0,28.09322)" /><g
     id="g3101"
     transform="translate(0,28.09322)" /><g
     id="g3103"
     transform="translate(0,28.09322)" /><g
     id="g3105"
     transform="translate(0,28.09322)" /><g
     id="g3107"
     transform="translate(0,28.09322)" /><g
     id="g3109"
     transform="translate(0,28.09322)" /><g
     id="g3111"
     transform="translate(0,28.09322)" /><g
     id="g3113"
     transform="translate(0,28.09322)" /><g
     id="g3115"
     transform="translate(0,28.09322)" /><g
     id="g3117"
     transform="translate(0,28.09322)" /><g
     id="g3119"
     transform="translate(0,28.09322)" /></svg>