<?xml version="1.0" encoding="UTF-8" standalone="no"?>
<svg
   xmlns:dc="http://purl.org/dc/elements/1.1/"
   xmlns:cc="http://creativecommons.org/ns#"
   xmlns:rdf="http://www.w3.org/1999/02/22-rdf-syntax-ns#"
   xmlns:svg="http://www.w3.org/2000/svg"
   xmlns="http://www.w3.org/2000/svg"
   xmlns:sodipodi="http://sodipodi.sourceforge.net/DTD/sodipodi-0.dtd"
   xmlns:inkscape="http://www.inkscape.org/namespaces/inkscape"
   id="primary_Logo"
   viewBox="0 0 290.7 290.65985"
   width="2500"
   height="2500"
   version="1.1"
   inkscape:version="0.91 r13725"
   sodipodi:docname="medium.svg">
  <metadata
     id="metadata4294">
    <rdf:RDF>
      <cc:Work
         rdf:about="">
        <dc:format>image/svg+xml</dc:format>
        <dc:type
           rdf:resource="http://purl.org/dc/dcmitype/StillImage" />
        <dc:title></dc:title>
      </cc:Work>
    </rdf:RDF>
  </metadata>
  <defs
     id="defs4292" />
  <sodipodi:namedview
     pagecolor="#ffffff"
     bordercolor="#666666"
     borderopacity="1"
     objecttolerance="10"
     gridtolerance="10"
     guidetolerance="10"
     inkscape:pageopacity="0"
     inkscape:pageshadow="2"
     inkscape:window-width="1350"
     inkscape:window-height="726"
     id="namedview4290"
     showgrid="false"
     inkscape:zoom="0.10966543"
     inkscape:cx="-1462.7966"
     inkscape:cy="1076"
     inkscape:window-x="0"
     inkscape:window-y="16"
     inkscape:window-maximized="0"
     inkscape:current-layer="primary_Logo" />
  <style
     id="style4282">.st0{fill:#2ffc8d}.st1{fill:#03e370}.st2{fill:#10c767}.st3{fill:#00ab6c}</style>
  <g
     id="XMLID_98_"
     transform="translate(0,23.488562)">
    <g
       id="XMLID_99_">
      <path
         id="XMLID_103_"
         class="st0"
         d="m 196.5,0.3 c -1.5,-0.7 -2.7,0 -2.7,1.7 l 0,202.9 88.9,44.4 c 4.4,2.2 8,0 8,-5 l 0,-195.3 c 0,-1 -0.5,-1.9 -1.4,-2.3 L 196.5,0.3 Z"
         inkscape:connector-curvature="0"
         style="fill:#2ffc8d" />
      <path
         id="XMLID_102_"
         class="st1"
         d="M 96.9,156.5 192.2,1.6 c 0.9,-1.4 2.8,-2 4.3,-1.2 l 92.1,46 c 1.1,0.6 1.6,2 0.9,3.1 L 193.8,204.9 96.9,156.5 Z"
         inkscape:connector-curvature="0"
         style="fill:#03e370" />
      <path
         id="XMLID_101_"
         class="st2"
         d="M 10.7,4.4 C 4.8,1.4 2.8,3.6 6.3,9.3 L 96.9,156.5 193.8,205 97.5,48.5 c -0.4,-0.7 -1,-1.2 -1.7,-1.6 L 10.7,4.4 Z"
         inkscape:connector-curvature="0"
         style="fill:#10c767" />
      <path
         id="XMLID_100_"
         class="st3"
         d="m 96.9,244.4 c 0,4.9 -3.6,7.2 -8,5 L 5.4,207.6 C 2.4,206.1 0,202.2 0,198.9 L 0,5 C 0,1.7 2.4,0.2 5.4,1.7 l 90.3,45.2 c 0.7,0.4 1.2,1.1 1.2,1.9 l 0,195.6 z"
         inkscape:connector-curvature="0"
         style="fill:#00ab6c" />
    </g>
  </g>
</svg>
