<?xml version="1.0" encoding="UTF-8" standalone="no"?>
<svg
   xmlns:dc="http://purl.org/dc/elements/1.1/"
   xmlns:cc="http://creativecommons.org/ns#"
   xmlns:rdf="http://www.w3.org/1999/02/22-rdf-syntax-ns#"
   xmlns:svg="http://www.w3.org/2000/svg"
   xmlns="http://www.w3.org/2000/svg"
   xmlns:sodipodi="http://sodipodi.sourceforge.net/DTD/sodipodi-0.dtd"
   xmlns:inkscape="http://www.inkscape.org/namespaces/inkscape"
   height="2048px"
   style="shape-rendering:geometricPrecision; text-rendering:geometricPrecision; image-rendering:optimizeQuality; fill-rule:evenodd; clip-rule:evenodd"
   viewBox="0 0 2048 2048"
   width="2048px"
   xml:space="preserve"
   id="svg4256"
   version="1.1"
   inkscape:version="0.91 r13725"
   sodipodi:docname="youtube.svg"><metadata
     id="metadata4271"><rdf:RDF><cc:Work
         rdf:about=""><dc:format>image/svg+xml</dc:format><dc:type
           rdf:resource="http://purl.org/dc/dcmitype/StillImage" /><dc:title></dc:title></cc:Work></rdf:RDF></metadata><sodipodi:namedview
     pagecolor="#ffffff"
     bordercolor="#666666"
     borderopacity="1"
     objecttolerance="10"
     gridtolerance="10"
     guidetolerance="10"
     inkscape:pageopacity="0"
     inkscape:pageshadow="2"
     inkscape:window-width="1350"
     inkscape:window-height="726"
     id="namedview4269"
     showgrid="false"
     inkscape:zoom="0.1418457"
     inkscape:cx="526.18935"
     inkscape:cy="681.05475"
     inkscape:window-x="0"
     inkscape:window-y="16"
     inkscape:window-maximized="0"
     inkscape:current-layer="svg4256" /><defs
     id="defs4258"><style
       type="text/css"
       id="style4260"><![CDATA[
    .fil2 {fill:none}
    .fil0 {fill:#E42B26}
    .fil1 {fill:#FFFFFE}
   ]]></style></defs><g
     id="Layer_x0020_1"
     transform="matrix(1.3468701,0,0,1.3468701,-355.19222,-355.1953)"><path
       class="fil0"
       d="m 1688.02,565.913 c -30.3756,-27.574 -68.8453,-45.6579 -110.919,-50.3067 -91.4469,-10.2354 -183.723,-15.3874 -276.305,-17.9705 -91.9879,-2.56536 -184.37,-2.56536 -276.547,-2.51221 -92.1639,-0.0531 -184.54,-0.0531 -276.54,2.51221 -92.5926,2.58307 -184.896,7.73505 -276.395,17.9705 -42.0331,4.65118 -80.4863,22.7433 -110.834,50.3292 -30.1547,27.4087 -52.3099,64.2189 -62.002,106.533 -13.0843,56.7201 -19.7032,115.899 -23.0469,175.445 -3.3567,59.7981 -3.44055,118.839 -3.44055,176.156 0,57.241 0.001,116.205 3.27874,176.039 3.26221,59.5193 9.80079,118.696 22.8921,175.426 9.75001,42.3319 31.9158,79.1528 62.0682,106.56 30.3296,27.5705 68.7449,45.652 110.766,50.3032 91.5107,10.2343 183.814,15.3862 276.407,17.9681 91.9985,2.5654 184.375,2.5654 276.55201,2.5122 92.2182,0.053 184.593,0.053 276.579,-2.5122 92.5796,-2.5819 184.856,-7.7339 276.356,-17.9681 42.013,-4.6512 80.4201,-22.7268 110.763,-50.289 30.1677,-27.4051 52.3642,-64.2296 62.178,-106.574 13.0335,-56.7319 19.5732,-115.909 22.8473,-175.426 3.2303,-58.6926 3.2575,-118.234 3.2528,-176.039 l 0.062,0 0,-2.902 -0.062,0 c 0,-114.84997 0,-236.49197 -25.7823,-348.69797 -9.7501,-42.3331 -31.9406,-79.1505 -62.1285,-106.556 z"
       id="path4263"
       inkscape:connector-curvature="0"
       style="fill:#e42b26" /><path
       class="fil1"
       d="M 1309.36,995.76 C 1223.6745,951.0115 1138.565,906.5997 1053.557,862.242 982.894,825.3691 912.295,788.5293 841.491,751.562 l -23.3752,-12.2043 0,26.3292 0,486.747 0,26.263 23.3126,-12.0756 c 78.202,-40.5083 156.07,-80.8666 233.935,-121.236 l 233.934,-121.313 27.2303,-14.1236 -27.1677,-14.1886 z"
       id="path4265"
       inkscape:connector-curvature="0"
       style="fill:#fffffe" /></g><rect
     class="fil2"
     height="2048"
     width="2048"
     id="rect4267" /></svg>